<svg xmlns="http://www.w3.org/2000/svg" viewBox="0 0 512 512" xml:space="preserve" width="213" height="213" fill="#fff" stroke="#fff" stroke-width=".005"><path style="fill:#0091ea" d="M17.067 213.333v187.733c0 4.693 3.84 8.533 8.533 8.533h460.8c4.693 0 8.533-3.84 8.533-8.533V213.333H17.067zM153.6 358.4c0 4.693-3.84 8.533-8.533 8.533H59.733c-4.693 0-8.533-3.84-8.533-8.533v-34.133c0-4.693 3.84-8.533 8.533-8.533h85.333c4.693 0 8.533 3.84 8.533 8.533V358.4zm136.533 0c0 4.693-3.84 8.533-8.533 8.533h-85.333c-4.693 0-8.533-3.84-8.533-8.533v-34.133c0-4.693 3.84-8.533 8.533-8.533H281.6c4.693 0 8.533 3.84 8.533 8.533V358.4zM426.667 384c-11.264 0-22.016-4.523-29.867-12.203-7.851 7.68-18.603 12.203-29.867 12.203-23.552 0-42.667-19.115-42.667-42.667 0-23.552 19.115-42.667 42.667-42.667 11.264 0 22.016 4.523 29.867 12.203 7.851-7.68 18.603-12.203 29.867-12.203 23.552 0 42.667 19.115 42.667 42.667-.001 23.552-19.115 42.667-42.667 42.667zm68.266-273.067V128H17.067v-17.067c0-4.693 3.84-8.533 8.533-8.533h460.8c4.693 0 8.533 3.84 8.533 8.533z"/><path style="fill:#717272" d="M17.067 145.067h477.867v51.2H17.067z"/><path d="M486.4 85.333H25.6c-14.08 0-25.6 11.52-25.6 25.6v290.133c0 14.08 11.52 25.6 25.6 25.6h460.8c14.08 0 25.6-11.52 25.6-25.6V110.933c0-14.08-11.52-25.6-25.6-25.6zm8.533 315.734c0 4.693-3.84 8.533-8.533 8.533H25.6c-4.693 0-8.533-3.84-8.533-8.533V213.333h477.867v187.734zm0-204.8H17.067v-51.2h477.867v51.2zm0-68.267H17.067v-17.067c0-4.693 3.84-8.533 8.533-8.533h460.8c4.693 0 8.533 3.84 8.533 8.533V128z"/><path d="M426.667 298.667c-11.264 0-22.016 4.523-29.867 12.203-7.851-7.68-18.603-12.203-29.867-12.203-23.552 0-42.667 19.115-42.667 42.667 0 23.552 19.115 42.667 42.667 42.667 11.264 0 22.016-4.523 29.867-12.203 7.851 7.68 18.603 12.203 29.867 12.203 23.552 0 42.667-19.115 42.667-42.667-.001-23.553-19.115-42.667-42.667-42.667zm0 68.266c-9.131 0-17.579-4.949-22.187-12.8-1.536-2.645-4.949-4.267-8.021-4.267h-.085c-2.987 0-5.717 1.621-7.253 4.267-4.608 7.851-13.056 12.8-22.187 12.8-14.08 0-25.6-11.52-25.6-25.6 0-14.08 11.52-25.6 25.6-25.6a25.655 25.655 0 0 1 22.187 12.8c1.621 2.731 4.267 4.267 7.509 4.267 3.157.171 6.229-1.365 7.851-4.267 4.608-7.851 13.056-12.8 22.187-12.8 14.08 0 25.6 11.52 25.6 25.6-.001 14.08-11.521 25.6-25.601 25.6z"/><path style="fill:#ffc107" d="M452.267 341.333c0 14.08-11.52 25.6-25.6 25.6-9.131 0-17.579-4.949-22.187-12.8-1.536-2.645-4.949-4.267-8.021-4.267h-.085c-2.987 0-5.717 1.621-7.253 4.267-4.608 7.851-13.056 12.8-22.187 12.8-14.08 0-25.6-11.52-25.6-25.6 0-14.08 11.52-25.6 25.6-25.6a25.655 25.655 0 0 1 22.187 12.8c1.621 2.731 4.267 4.267 7.509 4.267 3.157.171 6.229-1.365 7.851-4.267 4.608-7.851 13.056-12.8 22.187-12.8 14.079 0 25.599 11.52 25.599 25.6z"/><path d="M281.6 315.733h-85.333c-4.693 0-8.533 3.84-8.533 8.533V358.4c0 4.693 3.84 8.533 8.533 8.533H281.6c4.693 0 8.533-3.84 8.533-8.533v-34.133c0-4.694-3.84-8.534-8.533-8.534zm-8.533 34.134H204.8V332.8h68.267v17.067z"/><path style="fill:#d50000" d="M204.8 332.8h68.267v17.067H204.8z"/><path d="M145.067 315.733H59.733c-4.693 0-8.533 3.84-8.533 8.533V358.4c0 4.693 3.84 8.533 8.533 8.533h85.333c4.693 0 8.533-3.84 8.533-8.533v-34.133c.001-4.694-3.839-8.534-8.532-8.534zm-8.534 34.134H68.267V332.8h68.267v17.067z"/><path style="fill:#d50000" d="M68.267 332.8h68.267v17.067H68.267z"/><path style="fill:#2979ff" d="M469.333 213.333v162.133c0 4.693-3.84 8.533-8.533 8.533H17.067v17.067c0 4.693 3.84 8.533 8.533 8.533h460.8c4.693 0 8.533-3.84 8.533-8.533V213.333h-25.6zM486.4 102.4h-17.067V128h25.6v-17.067c0-4.693-3.84-8.533-8.533-8.533z"/><path style="fill:#555656" d="M469.333 145.067h25.6v51.2h-25.6z"/></svg>