<svg width="30" height="30" fill="none" xmlns="http://www.w3.org/2000/svg"><path d="M28.125 21.875a2.5 2.5 0 0 1-2.5 2.5H4.375a2.5 2.5 0 0 1-2.5-2.5V8.125a2.5 2.5 0 0 1 2.5-2.5h21.25a2.5 2.5 0 0 1 2.5 2.5v13.75Z" fill="#1565C0"/><path d="M9.491 11.875 7.85 16.77s-.417-2.07-.458-2.33c-.935-2.133-2.313-2.014-2.313-2.014l1.625 6.324v-.001h1.975l2.732-6.874h-1.92Zm1.565 6.875h1.794l1.085-6.875h-1.817l-1.063 6.875Zm12.699-6.875h-1.888l-2.944 6.875h1.783l.367-.982h2.247l.192.982h1.633l-1.39-6.875Zm-2.184 4.58.976-2.598.512 2.598H21.57Zm-5.09-2.576c0-.38.31-.661 1.203-.661.58 0 1.245.421 1.245.421l.29-1.443s-.848-.322-1.681-.322c-1.887 0-2.86.903-2.86 2.045 0 2.066 2.487 1.783 2.487 2.845 0 .181-.145.602-1.18.602-1.039 0-1.724-.38-1.724-.38l-.31 1.384s.665.38 1.948.38c1.287 0 3.072-.963 3.072-2.346 0-1.663-2.49-1.783-2.49-2.525Z" fill="#fff"/><path d="m7.632 15.59-.603-2.967s-.273-.643-.983-.643H3.27s3.538 1.045 4.361 3.61Z" fill="#FFC107"/></svg>