<svg width="100" height="100" fill="none" xmlns="http://www.w3.org/2000/svg"><path d="M50.098 10.417c-3.24.01-5.485.296-8.2.764-8.017 1.396-9.477 4.327-9.477 9.73v8.256h18.75v4.166H22.646c-5.492 0-10.298 2.588-11.82 8.79-1.722 7.119-1.799 11.577 0 19.01 1.364 5.544 4.37 9.7 9.864 9.7h7.566V60.2c0-6.18 5.596-12.283 12.009-12.283H55.34c5.256 0 10.416-3.88 10.416-9.12V20.91c0-5.08-3.664-8.88-8.787-9.733.127-.012-3.659-.773-6.871-.76ZM39.715 18.75c1.71 0 3.125 1.41 3.125 3.13A3.125 3.125 0 0 1 39.715 25a3.103 3.103 0 0 1-3.125-3.12 3.126 3.126 0 0 1 3.125-3.13Z" fill="#0277BD"/><path d="M48.08 89.583c3.239-.01 5.485-.295 8.2-.764 8.016-1.396 9.476-4.327 9.476-9.73v-8.256h-18.75v-4.166h28.527c5.492 0 10.298-2.588 11.821-8.79 1.721-7.119 1.798-11.577 0-19.01-1.366-5.544-4.373-9.7-9.866-9.7H69.92V39.8c0 6.18-5.596 12.283-12.008 12.283H42.838c-5.257 0-10.417 3.88-10.417 9.12V79.09c0 5.08 3.665 8.88 8.787 9.733-.127.013 3.659.773 6.871.76Zm10.385-8.333a3.143 3.143 0 0 1-3.125-3.13A3.125 3.125 0 0 1 58.465 75a3.103 3.103 0 0 1 3.125 3.12 3.127 3.127 0 0 1-3.125 3.13Z" fill="#FFC107"/></svg>