<svg width="100" height="100" fill="none" xmlns="http://www.w3.org/2000/svg"><path d="M69.232 3.125a.438.438 0 0 0-.293.104L57.33 17.017l-2.368 8.142c-1.61-.053-3.271-.074-4.974-.074-12.066 0-21.863 1.278-21.863 2.863 0 3.781 43.72 3.781 43.72 0 0-1.172-5.234-2.162-12.781-2.63l1.873-6.702L71.796 5.554l.018-.018c.244-.253-.232-1.013-1.007-1.679-.581-.501-1.193-.747-1.575-.732ZM54.071 28.363l-.043.128c-.018.016-.018.036-.018.055 0 .234.947.427 2.1.427s2.105-.193 2.105-.427l.037-.146c.303.109.47.234.47.378 0 .378-1.171.687-2.63.671-1.42 0-2.595-.287-2.595-.665 0-.162.233-.312.574-.421Zm17.53 1.074c-5.785 3.085-37.383 3.105-43.19.043l2.57 22.601c1.116-3.603 3.938-8.467 7.569-9.942 1.19-.488 2.4-.486 3.534.164.984.541 1.816 1.674 1.91 2.124.228 1.172-.376 1.636-.848 1.636-.569 0-1.004-.825-1.288-1.312-.775-1.316-1.948-1.372-3.198-.507-1.307.9-2.441 2.414-3.235 3.73-.966 1.584-1.78 3.33-2.27 5.078-.285 1.009-.545 2.626-.11 3.582.19.397.47.647.927.647.947 0 2.322-1.187 2.985-1.819.85-.809 1.946-2.07 2.362-2.88l.989-2.79c.49-1.225 1.867-1.009 1.867 0 0 1.838-.695 2.45-1.886 6.25a601.187 601.187 0 0 0-1.44 4.651c-.131.503-.643 1.35-1.19 1.35-.228 0-.395-.077-.489-.22-.19-.254-.17-.949-.152-1.13.037-.575 1.189-4 1.38-4.54-.379.396-.775.796-1.21 1.19-1.021.918-2.664 2.123-4.064 2.123-.644 0-1.056-.164-1.453-.433l1.434 14.337c.379.9 7.416 3.082 16.681 3.082 9.285 0 16.316-2.197 16.675-3.082l2.063-17.035c-1.078.938-2.323 2.093-3.705 2.668-1.022.415-3.29.68-3.29-1.032 0-.937 1.723-2.663 2.723-3.87.265-.306.885-1.061.885-1.458 0-.522-1.132-.402-2.21.445-.606.488-1.176 1.14-1.648 1.752-.812 1.081-1.246 2.014-1.605 2.79-1.172 2.555-.774 1.548-1.721 3.96-.947 2.397-.792 2.124-.983 2.521-.169.344-.416.634-.757.812-.359.181-.85.16-1.153-.055-.169-.11-.25-.343-.25-.665 0-.163.023-.326.06-.489.285-1.1 1.476-3.258 2.839-6.176.303-.666.187-.468.146-.415-1.172 1.081-2.063 1.604-2.722 1.892-1.097.468-2.46.468-2.74-.739-.02-.072-.018-.148-.037-.22-2.231 1.657-4.594 2.107-3.778-1.458-.869 1.478-2.386 2.685-4.242 2.685-.775 0-1.342-.25-1.624-.915-.434-.99.245-2.688.867-4.291a32.62 32.62 0 0 1 1.349-2.917c.303-.613.79-.975 1.434-.812.113.037.212.075.305.128.491.325.302.806.055 1.294-.718 1.35-1.342 2.341-1.757 3.747-.17.594-.382 1.624.28 1.624.454 0 .888-.146 1.306-.433.87-.613 1.569-1.53 2.1-2.43.378-.646.834-1.493 1.062-2.215a6.11 6.11 0 0 1 .342-.867c.21-.45.489-.915.983-.915.247 0 .45.09.604.268.322.397.251.805.08 1.24-.379 1.009-.888 1.911-1.307 3.008-.247.632-.513 1.44-.513 2.106 0 .613.7.467 1.288.214.453-.197.907-.5 1.288-.806.228-.881.168-.686 4.993-12.286.247-.594.7-.849 1.153-.849.228 0 .414.077.604.202.322.234.327.732.196 1.11-.131.344-.117.236-.855 1.892-.984 2.179-1.624 3.75-2.496 5.75-.36.828-1.454 3.404-1.642 4.016-.112.397-.248 1.044.19 1.044 1.021 0 3.65-2.361 4.37-3.064.037-.053.095-.072.17-.11.113-.344.224-.664.318-.989.265-.684.513-1.482 1.007-2.038.15-.182.319-.287.506-.287.529 0 .794.214.794.72 0 .197-.13.92-.208 1.117.266-.269.546-.537.849-.806 2.837-2.503 4.858-1.226 4.858.037 0 1.331-1.681 3.183-2.606 4.211-.303.344-.927.973-.946 1.154 0 .234.168.33.415.33.378 0 1.21-.633 1.514-.849.947-.703 2.227-1.783 3.137-2.539l2.801-24.64Zm-37.446 45.66 2.82 4.578 1.099 14.3c0 1.604 5.35 2.9 11.932 2.9 6.581 0 11.932-1.296 11.932-2.9l.873-14.446 2.661-4.431c-7.49 3.009-23.523 3.115-31.317 0Z" fill="#E44849"/></svg>