<svg width="100" height="100" fill="none" xmlns="http://www.w3.org/2000/svg"><path d="M25 60.417a4.179 4.179 0 0 1-4.167 4.166 4.179 4.179 0 0 1-4.166-4.166v-18.75a4.179 4.179 0 0 1 4.166-4.167A4.179 4.179 0 0 1 25 41.667v18.75Zm58.333 0a4.179 4.179 0 0 1-4.166 4.166A4.179 4.179 0 0 1 75 60.417v-18.75a4.179 4.179 0 0 1 4.166-4.167 4.179 4.179 0 0 1 4.167 4.167v18.75Zm-37.5 22.916a4.179 4.179 0 0 1-4.166 4.167 4.179 4.179 0 0 1-4.167-4.167v-18.75a4.179 4.179 0 0 1 4.166-4.166 4.179 4.179 0 0 1 4.167 4.166v18.75Zm16.667 0a4.179 4.179 0 0 1-4.167 4.167 4.179 4.179 0 0 1-4.166-4.167v-18.75a4.179 4.179 0 0 1 4.166-4.166 4.179 4.179 0 0 1 4.167 4.166v18.75Z" fill="#7CB342"/><path d="M29.166 37.5v31.25a4.179 4.179 0 0 0 4.167 4.167h33.334a4.179 4.179 0 0 0 4.166-4.167V37.5H29.167ZM50 16.667c-12.5 0-20.209 7.5-20.834 16.666h41.667C70.208 24.167 62.5 16.667 50 16.667Zm-8.334 11.666c-1.25 0-2.083-.833-2.083-2.083 0-1.25.834-2.083 2.084-2.083S43.75 25 43.75 26.25c0 1.042-.834 2.083-2.084 2.083Zm16.667 0c-1.25 0-2.083-.833-2.083-2.083 0-1.25.833-2.083 2.083-2.083 1.25 0 2.084.833 2.084 2.083 0 1.042-.834 2.083-2.084 2.083Z" fill="#7CB342"/><path d="M58.959 21.875c-.417 0-.834-.208-1.25-.417-1.042-.625-1.25-1.875-.626-2.916l3.542-5.209c.625-1.041 1.875-1.25 2.917-.625 1.041.625 1.25 1.875.625 2.917l-3.542 5.208c-.208.625-.833 1.042-1.666 1.042Zm-18.75-.833c-.626 0-1.459-.417-1.667-1.042l-2.709-4.375c-.624-1.042-.416-2.292.626-2.917 1.041-.625 2.291-.416 2.916.625l2.709 4.375c.624 1.042.416 2.292-.626 2.917-.416.208-.833.417-1.25.417Z" fill="#7CB342"/></svg>