<svg width="100" height="100" fill="none" xmlns="http://www.w3.org/2000/svg"><path d="M49.86 4.167 6.25 19.344l6.892 56.506 36.764 19.983L86.86 75.58l6.89-56.504L49.86 4.167Z" fill="#BDBDBD"/><path d="M89.204 21.931 50 8.614v82.417l32.983-18.079 6.221-51.02Z" fill="#B71C1C"/><path d="M49.877 8.573 10.794 22.175l6.223 51.04 32.881 17.87.102-.054V8.615l-.123-.042Z" fill="#DD2C00"/><path d="M50 12.492V32.3l17.87 38.533h9.186L50 12.492Z" fill="#BDBDBD"/><path d="M22.944 70.833h9.185L50 32.3V12.492L22.944 70.833Z" fill="#EEE"/><path d="M50 50h12.5v8.333H50V50Z" fill="#BDBDBD"/><path d="M37.5 50H50v8.333H37.5V50Z" fill="#EEE"/></svg>