<svg width="100" height="100" fill="none" xmlns="http://www.w3.org/2000/svg"><path d="M83.056 54.075c-3.204.017-5.979.785-8.304 1.933-.85-1.698-1.712-3.191-1.856-4.302-.169-1.296-.365-2.07-.16-3.614.204-1.544 1.097-3.731 1.085-3.896-.013-.165-.2-.95-2.048-.965-1.848-.012-3.43.357-3.615.844a18.251 18.251 0 0 0-.762 2.731c-.323 1.675-3.69 7.652-5.6 10.777-.625-1.22-1.156-2.295-1.267-3.145-.169-1.296-.364-2.071-.16-3.615s1.098-3.731 1.085-3.896c-.012-.164-.2-.95-2.048-.964-1.848-.013-3.429.356-3.614.843-.186.488-.386 1.627-.763 2.732-.379 1.102-4.852 11.07-6.025 13.656a78.709 78.709 0 0 1-1.483 3.096c-.002-.002-.002-.005-.002-.005l-.06.13c-.315.614-.5.954-.5.954l.006.012c-.25.452-.517.871-.648.871-.092 0-.277-1.202.04-2.852.666-3.458 2.264-8.85 2.25-9.037-.009-.096.297-1.036-1.044-1.527-1.305-.478-1.77.318-1.888.32-.114.002-.2.282-.2.282s1.452-6.065-2.77-6.065c-2.642 0-6.3 2.89-8.103 5.508-1.137.621-3.573 1.95-6.154 3.37l-2.965 1.63c-.064-.073-.13-.143-.198-.216-5.122-5.465-14.59-9.33-14.19-16.677.147-2.671 1.076-9.705 18.195-18.234 14.023-6.987 25.25-5.064 27.19-.804 2.77 6.09-6 17.404-20.563 19.038-5.548.623-8.471-1.53-9.198-2.33-.765-.843-.88-.88-1.165-.723-.464.259-.17 1.003 0 1.446.436 1.132 2.219 3.138 5.26 4.138 2.678.879 9.192 1.36 17.07-1.688 8.824-3.412 15.714-12.908 13.689-20.843-2.058-8.071-15.442-10.725-28.108-6.225-7.548 2.679-15.709 6.883-21.577 12.37-6.977 6.525-8.09 12.207-7.632 14.58 1.63 8.433 13.252 13.925 17.907 17.993l-.642.354c-2.333 1.155-11.194 5.792-13.41 10.69-2.515 5.556.4 9.544 2.329 10.081 5.977 1.663 12.11-1.329 15.408-6.246 3.296-4.914 2.894-11.316 1.381-14.237-.018-.035-.04-.07-.058-.108.602-.357 1.217-.72 1.825-1.077a118.752 118.752 0 0 1 3.365-1.898c-.567 1.55-.982 3.41-1.196 6.096-.255 3.154 1.04 7.23 2.73 8.835.747.706 1.643.723 2.21.723 1.968 0 2.866-1.638 3.856-3.575 1.212-2.375 2.29-5.142 2.29-5.142s-1.35 7.471 2.328 7.471c1.342 0 2.69-1.74 3.292-2.625l.002.015.104-.173c.14-.213.219-.348.219-.348l.006-.04c.54-.935 1.736-3.069 3.527-6.587 2.317-4.546 4.538-10.242 4.538-10.242s.206 1.392.883 3.696c.398 1.354 1.244 2.852 1.913 4.29a50.336 50.336 0 0 1-.867 1.172s.002.009.008.023a42.38 42.38 0 0 1-1.414 1.786c-1.83 2.177-4.007 4.664-4.298 5.38-.344.847-.263 1.468.402 1.97.485.364 1.348.423 2.25.362 1.644-.11 2.798-.519 3.369-.767.89-.314 1.925-.808 2.895-1.522 1.794-1.32 2.875-3.205 2.771-5.705-.058-1.377-.496-2.741-1.052-4.029.163-.233.325-.47.49-.708 2.827-4.133 5.02-8.675 5.02-8.675s.207 1.392.884 3.696c.342 1.164 1.019 2.437 1.627 3.683-2.658 2.16-4.306 4.67-4.88 6.317-1.058 3.046-.228 4.425 1.326 4.74.704.141 1.7-.182 2.448-.499.931-.308 2.05-.822 3.096-1.591 1.793-1.319 3.518-3.165 3.414-5.663-.048-1.137-.356-2.266-.775-3.35 2.254-.94 5.171-1.46 8.888-1.027 7.973.931 9.535 5.908 9.237 7.992-.3 2.083-1.97 3.229-2.531 3.575-.558.346-.73.466-.683.723.068.373.327.36.804.279.656-.11 4.185-1.694 4.337-5.54.19-4.887-4.487-10.25-12.773-10.206ZM21.604 74.792c-2.641 2.881-6.329 3.968-7.912 3.052-1.709-.99-1.031-5.231 2.208-8.29 1.975-1.862 4.525-3.579 6.217-4.635l1.637-.983.18-.1-.003-.005c.134-.079.27-.16.409-.245 1.18 4.352.037 8.183-2.736 11.206Zm19.24-13.077c-.919 2.241-2.844 7.979-4.017 7.67-1.006-.264-1.619-4.625-.2-8.916.713-2.16 2.238-4.742 3.133-5.744 1.442-1.612 3.03-2.14 3.415-1.485.49.833-1.754 7.068-2.331 8.475Zm15.894 7.583c-.39.204-.748.331-.913.233-.123-.073.16-.341.16-.341s1.988-2.14 2.771-3.113c.457-.567.984-1.24 1.559-1.99.004.076.006.15.006.224-.004 2.562-2.48 4.291-3.583 4.987Zm12.243-2.792c-.291-.206-.241-.875.715-2.96.375-.819 1.233-2.196 2.72-3.513.174.542.278 1.06.276 1.544-.019 3.225-2.319 4.43-3.71 4.93Z" fill="#F06292"/></svg>