<svg width="100" height="100" fill="none" xmlns="http://www.w3.org/2000/svg"><path d="M85.417 10.417H14.583l6.25 70.833L50 89.583l29.167-8.333 6.25-70.833Z" fill="#0277BD"/><path d="M50 16.667v66.458l23.333-6.667 5.209-59.791H50Z" fill="#039BE5"/><path d="M68.958 27.083H50v8.334h10.208l-.625 8.333H50v8.333h9.167l-.625 9.375L50 64.375v8.75l16.458-5.417 1.459-23.958 1.041-16.667Z" fill="#fff"/><path d="M50 27.083v8.334H31.46l-.625-8.334H50ZM40.417 43.75l.416 8.333H50V43.75h-9.583Zm.833 12.5h-8.333l.625 11.458L50 73.125v-8.75l-8.541-2.917-.209-5.208Z" fill="#EEE"/></svg>