<svg width="100" height="100" fill="none" xmlns="http://www.w3.org/2000/svg"><path d="M49.27 51.87c-2.079-3.351-3.587-6.13-5.676-11.364-3.534-8.84 21.49-16.827 11.343-32.175 4.398 10.602-15.785 17.157-17.66 25.986C35.562 42.437 49.26 51.87 49.27 51.87Z" fill="#F44336"/><path d="M49.746 35.98c-.4 5.24 4.643 8.035 4.79 11.864.116 3.117-3.015 5.714-3.015 5.714s5.683-1.116 7.456-5.87c1.969-5.28-3.82-8.894-3.225-13.121.556-4.038 12.565-11.548 12.565-11.548s-17.67 1.17-18.571 12.96Z" fill="#F44336"/><path d="M66.841 52.198c3.655-.821 6.736 1.506 6.736 4.187 0 6.044-8.377 11.757-8.377 11.757s12.968-1.546 12.968-11.47c0-6.562-6.368-8.201-11.327-4.474Zm-6.156 4.875s4.044-2.881 5.121-3.963c-9.923 2.107-32.58 2.39-32.58.56 0-1.685 7.307-3.412 7.307-3.412s-16.194-.233-16.194 4.544c0 4.98 21.198 5.335 36.346 2.27Z" fill="#1565C0"/><path d="M58.198 61.606c-9.394 3.123-26.696 2.125-21.571-2.069-2.496 0-6.196 2.007-6.196 3.936 0 3.868 18.713 6.856 32.563 1.191l-4.796-3.058Z" fill="#1565C0"/><path d="M38.929 68.206c-3.408 0-5.614 2.196-5.614 3.796 0 4.981 20.333 5.484 28.389.427l-5.12-3.4c-6.02 2.646-21.138 3.01-17.655-.823Z" fill="#1565C0"/><path d="M75.585 76.317c0-1.95-2.197-2.869-2.985-3.309 4.642 11.194-46.494 10.325-46.494 3.717 0-1.502 3.765-2.973 7.244-2.277L30.392 72.7c-6.934-1.088-11.642 1.96-11.642 4.419 0 11.464 56.835 10.912 56.835-.802Z" fill="#1565C0"/><path d="M81.25 80.425c-8.637 8.531-30.54 11.64-52.564 6.369 22.025 9.381 52.46 4.098 52.564-6.369Z" fill="#1565C0"/></svg>