<svg width="100" height="100" fill="none" xmlns="http://www.w3.org/2000/svg"><path d="M50.014 94.623a6.87 6.87 0 0 1-3.429-.917L35.67 87.242c-1.632-.913-.836-1.236-.298-1.421 2.175-.76 2.614-.934 4.935-2.252.244-.14.563-.09.813.058l8.387 4.977c.302.165.733.165 1.013 0l32.7-18.877c.302-.173.5-.523.5-.883V31.108c0-.377-.196-.712-.507-.9L50.527 11.346a1.009 1.009 0 0 0-1.006 0l-32.684 18.86a1.04 1.04 0 0 0-.518.892v37.737a1 1 0 0 0 .508.875l8.956 5.173c4.863 2.431 7.834-.433 7.834-3.314V34.325c0-.531.416-.942.95-.942h4.141c.517 0 .942.409.942.942v37.262c0 6.484-3.536 10.209-9.683 10.209-1.892 0-3.382 0-7.54-2.046l-8.58-4.944a6.92 6.92 0 0 1-3.43-5.969V31.1c0-2.456 1.31-4.748 3.429-5.96L46.583 6.254c2.071-1.17 4.821-1.17 6.877 0l32.696 18.894a6.904 6.904 0 0 1 3.427 5.96v37.738a6.925 6.925 0 0 1-3.429 5.96L53.458 93.69a6.87 6.87 0 0 1-3.446.917" fill="#21A366"/><path d="M60.116 68.619c-14.308 0-17.308-6.569-17.308-12.077 0-.523.423-.942.948-.942h4.225c.467 0 .86.34.933.8.638 4.304 2.538 6.475 11.19 6.475 6.892 0 9.823-1.556 9.823-5.212 0-2.105-.836-3.667-11.542-4.715-8.956-.883-14.49-2.856-14.49-10.019 0-6.598 5.567-10.527 14.89-10.527 10.471 0 15.66 3.636 16.315 11.444a.95.95 0 0 1-.254.729.973.973 0 0 1-.696.302h-4.248a.937.937 0 0 1-.917-.737c-1.023-4.528-3.496-5.975-10.216-5.975-7.523 0-8.398 2.618-8.398 4.583 0 2.381 1.03 3.077 11.18 4.42 10.053 1.334 14.826 3.217 14.826 10.282 0 7.12-5.944 11.206-16.306 11.206" fill="#21A366"/></svg>