<svg width="100" height="100" fill="none" xmlns="http://www.w3.org/2000/svg"><path d="M50 12.5 37.48 25.73 24.937 38.936 12.5 52.084V12.5H50Z" fill="#0D91D6"/><path d="M50 12.5h-.083l-12.48 13.188-12.52 13.229L12.5 52.02V87.5l18.104-18.104L43.48 56.52l12.896-12.896 12.896-12.896L87.5 12.5H50Z" fill="#F88909"/><path d="M30.604 69.396 12.5 87.5V52.27l18.104 17.126Z" fill="#C757BC"/><path d="M43.48 56.52 30.603 69.397 12.5 52.27v-.188l12.438-13.145 18.54 17.583Z" fill="#D3638F"/><path d="M56.375 43.625 43.479 56.521 24.938 38.938l12.541-13.209 18.896 17.896Z" fill="#E07063"/><path d="M69.27 30.73 56.376 43.624 37.479 25.729 49.999 12.5l19.272 18.23Z" fill="#EC7D36"/><path d="M87.5 12.5 69.27 30.73 50 12.5h37.5Z" fill="#F88909"/><path d="m23.98 39.896-7.334 7.77L12.5 43.75V29.042l11.48 10.854Z" fill="#0095D5"/><path d="m31.313 32.125-7.334 7.77L12.5 29.043v-14.73l18.813 17.813Z" fill="#2B88DA"/><path d="m38.667 24.375-7.355 7.75L12.5 14.312V12.5h13.604l12.563 11.875Z" fill="#557BDE"/><path d="m46 16.604-7.334 7.771L26.105 12.5H50l-4 4.104Z" fill="#806EE3"/><path d="M47.917 52.083 12.5 87.5h70.833L47.917 52.083Z" fill="#0095D5"/><path d="M53.5 87.5h-17l-12-11.98 8.5-8.5L53.5 87.5Z" fill="#2B88DA"/><path d="M70.542 87.5H53.5L33 67.02l8.5-8.5L70.542 87.5Z" fill="#557BDE"/><path d="M87.5 87.5H70.542L41.5 58.52 50 50l37.5 37.5Z" fill="#806EE3"/></svg>