<svg width="100" height="100" fill="none" xmlns="http://www.w3.org/2000/svg"><path d="M50 8.333 14.584 29.167v41.666L50 91.667l35.417-20.834V29.167L50 8.333Z" fill="#ECEFF1"/><path d="M48.958 51.042v18.75L31.25 60.417V40.625l17.708 10.417Zm2.083 0v18.75l17.709-9.375V40.625L51.04 51.042ZM50 48.958 32.29 38.542 50 29.167l17.708 9.375L50 48.958Z" fill="#0277BD"/><path d="M48.958 14.583v12.5L30.208 37.5l-10.416-6.25 29.166-16.667Zm0 70.834v-12.5L30.208 62.5l-10.416 6.25 29.166 16.667ZM29.167 39.583l-10.417-6.25v33.334l10.417-6.25V39.583Zm21.874-25v12.5L69.791 37.5l10.417-6.25-29.166-16.667Zm0 70.834v-12.5L69.791 62.5l10.417 6.25-29.166 16.667Zm19.793-45.834 10.416-6.25v33.334l-10.416-6.25V39.583Z" fill="#81D4FA"/></svg>