<svg width="100" height="100" fill="none" xmlns="http://www.w3.org/2000/svg"><path d="M85.417 10.417H14.583l6.25 70.833L50 89.583l29.167-8.333 6.25-70.833Z" fill="#E65100"/><path d="M50 16.667v66.458l23.333-6.667 5.209-59.791H50Z" fill="#FF6D00"/><path d="M50 52.083V43.75h17.917l-1.459 23.958L50 73.125v-8.75l8.542-2.917.625-9.375H50Zm18.542-16.666.625-8.334H50v8.334h18.542Z" fill="#fff"/><path d="M50 64.375v8.75l-16.46-5.417-.833-11.458h8.334l.416 5.208L50 64.375ZM39.79 35.417H50v-8.334H31.04l1.459 25H50V43.75h-9.584l-.624-8.333Z" fill="#EEE"/></svg>