<svg width="100" height="100" fill="none" xmlns="http://www.w3.org/2000/svg"><path d="M50 70.833C23.125 70.833 2.084 61.667 2.084 50c0-11.667 21.041-20.833 47.916-20.833 26.875 0 47.917 9.166 47.917 20.833 0 11.667-21.042 20.833-47.917 20.833Zm0-37.5C23.75 33.333 6.25 41.875 6.25 50c0 8.125 17.5 16.667 43.75 16.667S93.75 58.125 93.75 50c0-8.125-17.5-16.667-43.75-16.667Z" fill="#80DEEA"/><path d="M31.458 92.917c-2.083 0-3.75-.417-5.416-1.459-10.209-5.833-7.5-28.541 5.833-51.875 6.25-10.833 13.958-20 21.458-25.833C61.458 7.5 68.75 5.625 73.75 8.542c5.208 2.916 7.083 10.208 5.833 20.416-1.25 9.584-5.416 20.834-11.666 31.667-6.25 10.833-13.959 20-21.459 25.833-5.416 4.167-10.625 6.459-15 6.459ZM68.542 11.25c-3.334 0-7.709 1.875-12.5 5.625C48.958 22.5 41.667 31.25 35.625 41.667c-13.125 22.708-14.375 42.291-7.5 46.25 3.542 2.083 9.375.208 15.833-4.792C51.042 77.5 58.333 68.75 64.375 58.333c6.042-10.416 10-21.041 11.25-30 1.042-8.333-.208-14.166-3.75-16.25-1.042-.416-2.083-.833-3.333-.833Z" fill="#80DEEA"/><path d="M68.75 92.917c-10.417 0-25.417-12.709-36.667-32.5-13.541-23.334-16.25-46.042-6.041-51.875 10.208-5.834 28.54 7.708 42.082 31.041C74.375 50.417 78.54 61.667 79.79 71.25c1.459 10.208-.624 17.292-5.833 20.417-1.666.833-3.333 1.25-5.208 1.25ZM28.125 12.083c-6.875 3.959-5.625 23.542 7.5 46.25C48.75 81.042 65 91.875 71.875 87.917c3.541-2.084 4.791-7.917 3.75-16.25-1.25-8.959-5.209-19.584-11.25-30C51.25 18.958 35 8.125 28.125 12.083Z" fill="#80DEEA"/><path d="M50 58.333a8.333 8.333 0 1 0 0-16.666 8.333 8.333 0 0 0 0 16.666Z" fill="#80DEEA"/></svg>