<svg width="13" height="15" fill="none" xmlns="http://www.w3.org/2000/svg"><circle cx="6.5" cy="8" r="6" stroke="#fff"/><path d="M6.522 11.01c-.433 0-.829-.077-1.188-.231a2.958 2.958 0 0 1-.924-.66 3.165 3.165 0 0 1-.605-.957c-.14-.36-.209-.74-.209-1.144 0-.543.121-1.038.363-1.485a2.75 2.75 0 0 1 1.023-1.067c.44-.271.95-.407 1.529-.407.565 0 1.056.128 1.474.385.425.25.74.587.946 1.012l-.946.297a1.538 1.538 0 0 0-.616-.627 1.714 1.714 0 0 0-.88-.231 1.79 1.79 0 0 0-.968.275 1.957 1.957 0 0 0-.682.759 2.274 2.274 0 0 0-.253 1.089c0 .403.084.77.253 1.1.176.323.407.58.693.77.293.19.616.286.968.286.227 0 .444-.04.649-.121a1.82 1.82 0 0 0 .55-.319 1.1 1.1 0 0 0 .33-.451l.946.286a2.116 2.116 0 0 1-.539.748 2.627 2.627 0 0 1-.847.506 2.937 2.937 0 0 1-1.067.187Z" fill="#fff"/></svg>