<svg width="33" height="34" fill="none" xmlns="http://www.w3.org/2000/svg"><path d="M9.958 33.625a2.893 2.893 0 0 1-2.125-.875 2.893 2.893 0 0 1-.875-2.125c0-.833.292-1.542.875-2.125a2.893 2.893 0 0 1 2.125-.875c.806 0 1.507.292 2.104.875a2.86 2.86 0 0 1 .896 2.125 2.89 2.89 0 0 1-.875 2.125 2.893 2.893 0 0 1-2.125.875Zm16.667 0a2.893 2.893 0 0 1-2.125-.875 2.893 2.893 0 0 1-.875-2.125c0-.833.292-1.542.875-2.125a2.893 2.893 0 0 1 2.125-.875c.806 0 1.507.292 2.104.875a2.86 2.86 0 0 1 .896 2.125c0 .833-.292 1.542-.875 2.125a2.893 2.893 0 0 1-2.125.875ZM7.792 6.125l4.583 9.5h12l5.208-9.5H7.792Zm-1.25-2.5h24.541c.89 0 1.452.27 1.688.813.236.541.16 1.145-.23 1.812l-5.624 10.125a3.915 3.915 0 0 1-1.167 1.23 2.8 2.8 0 0 1-1.625.52H11.5l-2.333 4.333h20.458v2.5H9.542c-1.167 0-2.007-.388-2.521-1.166-.514-.778-.507-1.653.02-2.625l2.667-4.917L3.375 2.833H.125v-2.5H5l1.542 3.292Zm5.833 12h12-12Z" fill="#fff"/></svg>